<?xml version="1.0" encoding="UTF-8"?>
<svg version="1.1" xmlns="http://www.w3.org/2000/svg" width="500" height="500">
<path d="M0 0 C165 0 330 0 500 0 C500 165 500 330 500 500 C335 500 170 500 0 500 C0 335 0 170 0 0 Z " fill="#F9F9F9" transform="translate(0,0)"/>
<path d="M0 0 C20.79 0 41.58 0 63 0 C63 0.99 63 1.98 63 3 C56.07 3 49.14 3 42 3 C43.0415625 4.70800781 44.083125 6.41601562 45.15625 8.17578125 C52.4893487 20.21729268 59.79800883 32.27265359 66.99755859 44.3946228 C67.707924 45.59055521 68.41902536 46.78605077 69.13085938 47.98110962 C70.12212767 49.64617418 71.10998295 51.31326922 72.09765625 52.98046875 C72.65976807 53.92817139 73.22187988 54.87587402 73.80102539 55.85229492 C75 58 75 58 75 59 C66.72276084 60.88096393 58.07665466 62.19657169 50 59 C43.40954462 52.83230994 39.73619619 44.12711123 35.9397583 36.06530762 C32.60582316 28.99455252 28.56426041 22.44147011 24.4375 15.8125 C23.17989308 13.76036089 21.92798418 11.70471147 20.68359375 9.64453125 C19.90326782 8.36606323 19.90326782 8.36606323 19.10717773 7.06176758 C18 5 18 5 18 3 C12.06 3 6.12 3 0 3 C0 2.01 0 1.02 0 0 Z " fill="#020202" transform="translate(243,171)"/>
<path d="M0 0 C0.99 0 1.98 0 3 0 C3 14.85 3 29.7 3 45 C1.515 45.495 1.515 45.495 0 46 C-0.29132813 44.88882813 -0.58265625 43.77765625 -0.8828125 42.6328125 C-4.40521883 29.65160608 -8.49305502 18.97201148 -20 11 C-31.77073134 5.03685416 -43.28328124 4.6932861 -56.01953125 7.96484375 C-63.71271053 10.63678675 -68.79154416 16.17036059 -73 23 C-75.16798741 29.50396222 -75.30781164 38.18286114 -72.4375 44.5 C-67.67071509 51.91368952 -61.21896165 55.14584173 -53.0625 57.875 C-52.18787109 58.18179688 -51.31324219 58.48859375 -50.41210938 58.8046875 C-48.27918694 59.55062759 -46.14242398 60.28190842 -44 61 C-44 61.33 -44 61.66 -44 62 C-57.86 62 -71.72 62 -86 62 C-89.38335149 52.97772935 -89.38335149 52.97772935 -89.43359375 49.66796875 C-89.44519531 48.93779541 -89.45679688 48.20762207 -89.46875 47.45532227 C-89.4584375 46.70694092 -89.448125 45.95855957 -89.4375 45.1875 C-89.42847656 44.39851318 -89.41945312 43.60952637 -89.41015625 42.79663086 C-89.04990767 30.58945763 -83.9386857 20.59035811 -75.0546875 12.15234375 C-65.24132184 4.38508469 -54.55816358 0.63748268 -42.125 0.75 C-41.27808594 0.74226562 -40.43117187 0.73453125 -39.55859375 0.7265625 C-31.8965604 0.75002968 -24.87988995 1.96942742 -17.8125 5 C-14.24690475 6.49076369 -10.68872232 7.83514032 -7 9 C-6.29423828 8.02546875 -6.29423828 8.02546875 -5.57421875 7.03125 C-4.95160156 6.1959375 -4.32898438 5.360625 -3.6875 4.5 C-3.07261719 3.6646875 -2.45773438 2.829375 -1.82421875 1.96875 C-0.92123047 0.99421875 -0.92123047 0.99421875 0 0 Z " fill="#070707" transform="translate(234,168)"/>
<path d="M0 0 C6.6 0 13.2 0 20 0 C20.30272953 18.01240695 20.30272953 18.01240695 18 25 C17.63261719 26.175625 17.63261719 26.175625 17.2578125 27.375 C12.81422951 39.95859784 4.21812091 50.15048713 -7.76342773 55.92285156 C-20.0597088 61.63660066 -34.95857782 64.02926313 -48.1875 59.375 C-49.81621416 58.63515071 -51.42179293 57.84222873 -53 57 C-53.93972656 56.52949219 -54.87945312 56.05898438 -55.84765625 55.57421875 C-61.22038453 52.77577212 -66.16984428 49.64945099 -71 46 C-71.25523437 46.72574219 -71.51046875 47.45148438 -71.7734375 48.19921875 C-73.06801074 51.1552984 -74.60455104 53.30564666 -76.625 55.8125 C-77.25664062 56.60269531 -77.88828125 57.39289063 -78.5390625 58.20703125 C-79.02117187 58.79871094 -79.50328125 59.39039063 -80 60 C-81.32 59.67 -82.64 59.34 -84 59 C-84 43.82 -84 28.64 -84 13 C-82.68 13 -81.36 13 -80 13 C-79.58234375 14.155 -79.1646875 15.31 -78.734375 16.5 C-72.3809528 33.40278132 -64.81086693 44.84115613 -48.4453125 53.32421875 C-38.82232266 57.49223107 -26.93052339 57.69447271 -17 54.375 C-5.90689995 49.54386235 0.70561776 43.21188416 5.39355469 31.95629883 C6.50872489 28.35893215 6.47220041 24.80068055 6.4375 21.0625 C6.45748047 20.30259766 6.47746094 19.54269531 6.49804688 18.75976562 C6.49306314 12.92381658 4.89292617 8.9965073 2 4 C1.01 2.02 1.01 2.02 0 0 Z " fill="#0B0B0B" transform="translate(225,270)"/>
<path d="M0 0 C7.26 0 14.52 0 22 0 C22 16.5 22 33 22 50 C29.26 50 36.52 50 44 50 C44 51.32 44 52.64 44 54 C22.22 54 0.44 54 -22 54 C-22 52.68 -22 51.36 -22 50 C-14.74 50 -7.48 50 0 50 C0 33.5 0 17 0 0 Z " fill="#040404" transform="translate(305,270)"/>
<path d="M0 0 C15.18 0 30.36 0 46 0 C46 0.99 46 1.98 46 3 C39.73 3 33.46 3 27 3 C26.34 4.98 25.68 6.96 25 9 C23.95577779 11.08793636 22.86060046 13.15085824 21.7265625 15.19140625 C21.24623062 16.06004303 21.24623062 16.06004303 20.75619507 16.94622803 C19.71750322 18.82116888 18.67147593 20.69189441 17.625 22.5625 C16.90595016 23.85619732 16.18720253 25.15006266 15.46875 26.4440918 C9.40454373 37.34828569 3.24058657 48.19580476 -3 59 C-4.98 59 -6.96 59 -9 59 C-4.41213171 49.37381816 0.71477442 40.11554862 5.99951172 30.85693359 C11.22148373 21.68034118 16.13346885 12.36988833 21 3 C14.07 3 7.14 3 0 3 C0 2.01 0 1.02 0 0 Z " fill="#080808" transform="translate(337,171)"/>
<path d="M0 0 C7.06163974 -0.47875524 7.06163974 -0.47875524 11.0625 1.5625 C13 4 13 4 13.0625 7.625 C12 11 12 11 10.4375 12.4375 C6.90004954 13.25383472 3.62833901 13.12094463 0 13 C0 8.71 0 4.42 0 0 Z " fill="#2E2E2E" transform="translate(243,243)"/>
<path d="M0 0 C0.99 0 1.98 0 3 0 C3 4.29 3 8.58 3 13 C2.01 13 1.02 13 0 13 C-0.33 11.35 -0.66 9.7 -1 8 C-1.66 9.32 -2.32 10.64 -3 12 C-6 11 -6 11 -7.1875 8.9375 C-7.455625 8.298125 -7.72375 7.65875 -8 7 C-8.33 8.98 -8.66 10.96 -9 13 C-9.66 13 -10.32 13 -11 13 C-11 9.04 -11 5.08 -11 1 C-10.01 1 -9.02 1 -8 1 C-6.95107762 2.63631892 -5.95093297 4.30485863 -5 6 C-4.34 6.33 -3.68 6.66 -3 7 C-2.690625 6.21625 -2.38125 5.4325 -2.0625 4.625 C-1 2 -1 2 0 0 Z " fill="#1E1E1E" transform="translate(213,243)"/>
<path d="M0 0 C3.3 0 6.6 0 10 0 C10 0.99 10 1.98 10 3 C7.69 3 5.38 3 3 3 C3 3.66 3 4.32 3 5 C4.98 5 6.96 5 9 5 C9 5.99 9 6.98 9 8 C7.02 8 5.04 8 3 8 C3 8.99 3 9.98 3 11 C5.31 11 7.62 11 10 11 C10 11.66 10 12.32 10 13 C6.7 13 3.4 13 0 13 C0 8.71 0 4.42 0 0 Z " fill="#262626" transform="translate(225,243)"/>
<path d="M0 0 C1.828125 0.12109375 1.828125 0.12109375 4 1 C5.484375 3.72265625 5.484375 3.72265625 6.75 7.0625 C7.17796875 8.16722656 7.6059375 9.27195313 8.046875 10.41015625 C8.36140625 11.26480469 8.6759375 12.11945313 9 13 C7.68 12.67 6.36 12.34 5 12 C5 11.34 5 10.68 5 10 C2.02934491 10.34227572 2.02934491 10.34227572 -1 11 C-1.33 11.66 -1.66 12.32 -2 13 C-2.99 13 -3.98 13 -5 13 C-3.58192622 8.52761347 -1.88695626 4.28853694 0 0 Z " fill="#101010" transform="translate(280,243)"/>
<path d="M0 0 C2.375 -0.125 2.375 -0.125 5 0 C5.66 0.66 6.32 1.32 7 2 C6.44444444 6.55555556 6.44444444 6.55555556 5 8 C3.33382885 8.04063832 1.66611905 8.042721 0 8 C0 5.36 0 2.72 0 0 Z " fill="#E2E2E2" transform="translate(246,246)"/>
<path d="M0 0 C0.99 0 1.98 0 3 0 C4.32 2.64 5.64 5.28 7 8 C6.01 8 5.02 8 4 8 C3.67 7.34 3.34 6.68 3 6 C2.67 7.98 2.34 9.96 2 12 C1.34 12 0.68 12 0 12 C0 8.04 0 4.08 0 0 Z " fill="#090909" transform="translate(202,244)"/>
<path d="M0 0 C0.99 0 1.98 0 3 0 C3 4.29 3 8.58 3 13 C2.01 13 1.02 13 0 13 C0 8.71 0 4.42 0 0 Z " fill="#1D1D1D" transform="translate(264,243)"/>
<path d="M0 0 C1.98 0 3.96 0 6 0 C4.68 0.33 3.36 0.66 2 1 C2 3.97 2 6.94 2 10 C3.32 10 4.64 10 6 10 C6 10.66 6 11.32 6 12 C4.02 12 2.04 12 0 12 C0 8.04 0 4.08 0 0 Z " fill="#000000" transform="translate(244,244)"/>
<path d="M0 0 C1.98 0.495 1.98 0.495 4 1 C4.33 2.98 4.66 4.96 5 7 C3.35 7.33 1.7 7.66 0 8 C-1.125 2.25 -1.125 2.25 0 0 Z " fill="#585858" transform="translate(280,243)"/>
<path d="M0 0 C2.46278801 2.46278801 2.99771255 4.70676982 4 8 C2.68 7.67 1.36 7.34 0 7 C0 6.34 0 5.68 0 5 C-1.65 4.67 -3.3 4.34 -5 4 C-4.360625 3.71125 -3.72125 3.4225 -3.0625 3.125 C-0.84793921 2.17176549 -0.84793921 2.17176549 0 0 Z " fill="#191919" transform="translate(285,248)"/>
<path d="M0 0 C0.66 0.99 1.32 1.98 2 3 C1.34 4.32 0.68 5.64 0 7 C-0.99 6.67 -1.98 6.34 -3 6 C-2.67 4.68 -2.34 3.36 -2 2 C-1.34 2 -0.68 2 0 2 C0 1.34 0 0.68 0 0 Z " fill="#303030" transform="translate(210,248)"/>
</svg>
